<svg id="HabitoLogo" viewBox="0 0 141 33" version="1.1" preserveAspectRatio="xMinYMin" width="100%" height="100%" data-reactid="50"><g stroke-width="1" fill="none" fill-rule="evenodd" data-reactid="51"><g transform="translate(-90.000000, -47.000000)" data-reactid="52"><g transform="translate(90.000000, 47.000000)" data-reactid="53"><path class="HabitoLogo__character" d="M39.3124269,8.95850233 L38.8166027,8.46657209 L34.1814214,8.46657209 L33.6855973,8.95850233 L25.9770808,28.214386 L25.9770808,31.7346419 L26.5271357,32.280293 L29.831339,32.280293 L30.3287126,31.7868279 L31.9695808,27.5620605 L32.4266687,27.3348977 L40.5705808,27.3348977 L41.0284434,27.5620605 L42.6685368,31.7868279 L43.1666852,32.280293 L46.4708885,32.280293 L47.0209434,31.7346419 L47.0209434,28.214386 L39.3124269,8.95850233 Z M38.9374599,22.7502 L34.0605643,22.7502 L33.7731412,22.4654791 L36.3553005,15.3697116 L36.6419489,15.3697116 L39.224883,22.4654791 L38.9374599,22.7502 Z" data-reactid="54"></path><polygon class="HabitoLogo__character" points="84.1352423 32.2801395 84.686072 31.7344884 84.686072 9.01206977 84.1352423 8.46718605 79.8331929 8.46718605 79.2823632 9.01206977 79.2823632 31.7344884 79.8331929 32.2801395" data-reactid="55"></polygon><polygon class="HabitoLogo__character" points="19.1621324 8.46680233 14.860083 8.46680233 14.3092533 9.01245349 14.3092533 17.1511744 13.7591984 17.6968256 5.95461593 17.6968256 5.40378626 17.1511744 5.40378626 9.01245349 4.85218187 8.46680233 0.550907143 8.46680233 7.74725275e-05 9.01245349 7.74725275e-05 31.7348721 0.550907143 32.2797558 4.85218187 32.2797558 5.40378626 31.7348721 5.40378626 22.9361512 5.95461593 22.3912674 13.7591984 22.3912674 14.3092533 22.9361512 14.3092533 31.7348721 14.860083 32.2797558 19.1621324 32.2797558 19.7137368 31.7348721 19.7137368 9.01245349" data-reactid="56"></polygon><polygon class="HabitoLogo__character" points="110.993883 8.46680233 92.0503005 8.46680233 91.4986962 9.01245349 91.4986962 12.6148256 92.0503005 13.1597093 98.2690203 13.1597093 98.81985 13.7061279 98.81985 31.7348721 99.3714544 32.2797558 103.672729 32.2797558 104.223559 31.7348721 104.223559 13.7061279 104.775163 13.1597093 110.993883 13.1597093 111.544713 12.6148256 111.544713 9.01245349" data-reactid="57"></polygon><g transform="translate(116.983516, 0.049500)" data-reactid="58"><mask data-reactid="59"><polygon class="HabitoLogo__character" points="23.7399066 0.717865116 23.7399066 25.1900512 0.3666 25.1900512 0.3666 0.717865116 23.7399066 0.717865116" data-reactid="60"></polygon></mask><path class="HabitoLogo__character" d="M12.0533308,0.717865116 C5.06298462,0.717865116 0.3666,5.63563256 0.3666,12.9547256 C0.3666,20.2730512 5.06298462,25.1900512 12.0533308,25.1900512 C19.0436769,25.1900512 23.7400615,20.2730512 23.7400615,12.9547256 C23.7400615,5.63563256 19.0436769,0.717865116 12.0533308,0.717865116 M12.0533308,20.3628419 C8.26105055,20.3628419 5.90511099,17.5240744 5.90511099,12.9547256 C5.90511099,8.3846093 8.26105055,5.54507442 12.0533308,5.54507442 C15.845611,5.54507442 18.2007758,8.3846093 18.2007758,12.9547256 C18.2007758,17.5240744 15.845611,20.3628419 12.0533308,20.3628419" data-reactid="61"></path></g><path class="HabitoLogo__character" d="M68.9122005,19.9610093 L68.9122005,19.7484279 C70.6731511,18.9011721 71.6663489,17.1345209 71.6663489,14.7692651 C71.6663489,12.6910326 70.8970467,11.0080326 69.4405632,9.90214884 C68.2211456,8.97661395 66.5159753,8.46626512 64.6388159,8.46626512 L53.835272,8.46626512 L53.2844423,9.01268372 L53.2844423,31.7343349 L53.835272,32.279986 L65.3035302,32.279986 C68.7014753,32.279986 72.3326126,30.537893 72.3326126,25.6477535 C72.3326126,22.7867302 71.1519313,20.8397302 68.9122005,19.9610093 Z M58.5363049,13.7171023 L59.0987555,13.160707 L63.9268434,13.160707 C65.5863049,13.160707 66.2634148,13.8306837 66.2634148,15.4737767 C66.2634148,16.3386837 65.9597225,17.787614 63.9268434,17.787614 L59.0987555,17.787614 L58.5363049,17.2304512 L58.5363049,13.7171023 Z M63.9268434,27.5863116 L59.0987555,27.5863116 L58.5363049,27.0299163 L58.5363049,22.8435209 L59.0987555,22.2863581 L63.9268434,22.2863581 C66.040294,22.2863581 66.9412995,23.0791256 66.9412995,24.9363349 C66.9412995,26.7943116 66.040294,27.5863116 63.9268434,27.5863116 Z" data-reactid="62"></path><path class="HabitoLogo__character" d="M136.777592,32.2820581 L121.296257,32.2820581 C121.123493,32.111686 121.027427,32.0157558 120.855438,31.8453837 L120.855438,30.3711279 C121.027427,30.2015233 121.123493,30.105593 121.296257,29.9352209 L136.777592,29.9352209 C136.949581,30.105593 137.046422,30.2015233 137.218411,30.3711279 L137.218411,31.8453837 C137.046422,32.0157558 136.949581,32.111686 136.777592,32.2820581" data-reactid="63"></path></g></g></g></svg>
